<svg width="42" height="45" viewBox="0 0 42 45" fill="none" xmlns="http://www.w3.org/2000/svg">
<path d="M26.7297 20.8904C29.0399 19.7129 30.4839 17.6383 30.145 14.1847C29.6895 9.46343 25.6134 7.88277 20.4682 7.43421L20.4656 1.72767C20.4669 1.7094 20.4764 1.69365 20.4764 1.67475C20.4764 1.23942 20.1236 0.887246 19.6882 0.886616H17.286C17.0773 0.886783 16.8771 0.969825 16.7296 1.11749C16.582 1.26516 16.4992 1.46537 16.4992 1.67412H16.4809L16.484 7.26348C15.4357 7.26348 14.3647 7.28427 13.3013 7.30632L13.2994 1.74342C13.3013 1.71948 13.3133 1.69869 13.3133 1.67412C13.3133 1.23879 12.9605 0.886616 12.5251 0.885986H10.1229C9.91418 0.886153 9.71404 0.969195 9.56649 1.11686C9.41894 1.26453 9.33606 1.46474 9.33606 1.67349L9.33669 1.67538H9.31716L9.31842 7.43547C8.45532 7.45311 7.60797 7.47138 6.78141 7.47138L6.78078 7.45059H1.2834V7.45878C1.17988 7.45869 1.07736 7.47902 0.981698 7.5186C0.88604 7.55818 0.799125 7.61623 0.725924 7.68943C0.652723 7.76263 0.594672 7.84955 0.555094 7.9452C0.515516 8.04086 0.495187 8.14338 0.49527 8.24691V10.9093C0.49527 11.3446 0.848071 11.6974 1.2834 11.6974L1.28655 11.6968V11.7088C1.28655 11.7088 4.22991 11.6514 4.18077 11.7037C5.79483 11.7043 6.32088 12.6412 6.47397 13.4494L6.47712 20.9105L6.47775 20.9389L6.4809 31.3887C6.41034 31.8965 6.11172 32.7073 4.98402 32.7092C5.03505 32.7539 2.08665 32.7085 2.08665 32.7085L2.08602 32.7123C2.08098 32.7123 2.0772 32.7092 2.07216 32.7092C1.69353 32.7092 1.39239 32.9813 1.31616 33.3373L1.28403 33.3354L0.55827 36.5919L0.575281 36.595C0.572131 36.624 0.55827 36.6492 0.55827 36.6794C0.55827 37.0978 0.887131 37.4323 1.29915 37.4581L1.29726 37.4701L6.48405 37.4682C7.44921 37.4682 8.39925 37.4839 9.33165 37.4896L9.33606 43.3247H9.33795C9.33795 43.7594 9.69075 44.1122 10.1261 44.1122H12.5283C12.7371 44.1118 12.9372 44.0287 13.0847 43.8809C13.2323 43.7331 13.3151 43.5329 13.3151 43.324H13.3164L13.3139 37.5602C14.4069 37.5822 15.4647 37.5904 16.4979 37.5879L16.4992 43.3247H16.5011C16.5017 43.7594 16.8539 44.1122 17.2886 44.1122H19.6907C19.8995 44.1118 20.0997 44.0287 20.2472 43.8809C20.3947 43.7331 20.4776 43.5329 20.4776 43.324L20.4827 43.3234L20.4814 37.4978C27.1814 37.1104 31.8712 35.4207 32.4508 29.1276C32.9182 24.0618 30.5337 21.8014 26.7297 20.8904ZM13.3958 11.9916C15.6455 11.9904 22.7129 11.2722 22.7154 15.9682C22.716 20.4714 15.648 19.9485 13.3983 19.9498L13.3958 11.9916ZM13.4027 32.7407L13.4008 23.9654C16.1023 23.9654 24.5726 23.1855 24.5745 28.3471C24.5783 33.2963 16.1042 32.7363 13.4027 32.7407Z" fill="#EE5790"/>
</svg>
