<svg width="217" height="37" viewBox="0 0 217 37" fill="none" xmlns="http://www.w3.org/2000/svg">
<path d="M40.4954 28.9379L51.0005 23.6587L25.2847 10.2939L0.105804 22.2694L25.5005 36.4678L36.9085 30.7347L28.7513 26.766L25.5005 28.3822L15.472 22.8622L25.4001 18.0831L35.4988 23.4179L32.3483 24.9832L40.4954 28.9379Z" fill="#CC2A6D"/>
<g opacity="0.79">
<path opacity="0.79" d="M40.3595 7.89097L32.6739 11.6836L35.393 13.1238L25.3946 18.0881L15.3662 12.5681L25.2943 7.7891L28.0134 9.22466L35.7291 5.48293L25.1789 0L0 11.9754L25.3946 26.1736L50.8946 13.3646L40.3595 7.89097Z" fill="#EA0D63"/>
</g>
<path opacity="0.42" d="M25.5 36.4678L25.3946 26.1736L0 11.9756L0.105351 22.2698L25.5 36.4678Z" fill="#E8407C"/>
<path opacity="0.42" d="M50.995 23.6541L50.8946 13.3644L25.1789 0L25.2843 10.2942L50.995 23.6541Z" fill="#E8407C"/>
<path d="M71.696 21.816C70.856 22.224 69.56 22.488 68.264 22.488C64.352 22.488 62.072 19.968 62.072 15.984C62.072 11.736 64.592 9.312 68.384 9.312C69.728 9.312 70.856 9.6 71.624 9.984L72.152 8.28C71.6 7.992 70.304 7.56 68.312 7.56C63.296 7.56 59.864 10.968 59.864 16.056C59.864 21.384 63.272 24.264 67.832 24.264C69.8 24.264 71.36 23.88 72.104 23.496L71.696 21.816ZM74.6036 24H76.7156V17.808C76.7156 17.472 76.7396 17.112 76.7876 16.824C77.0756 15.24 78.1316 14.136 79.6196 14.136C79.9076 14.136 80.1236 14.136 80.3396 14.184V12.192C80.1476 12.168 79.9796 12.144 79.7636 12.144C78.3476 12.144 77.0516 13.128 76.5236 14.688H76.4516L76.3556 12.384H74.5076C74.5796 13.464 74.6036 14.64 74.6036 16.008V24ZM81.5285 12.384L85.8005 23.088C85.9205 23.352 85.9685 23.52 85.9685 23.64C85.9685 23.76 85.8965 23.928 85.8005 24.144C85.2965 25.224 84.6005 26.04 84.0245 26.496C83.4005 27.024 82.7045 27.36 82.1765 27.528L82.7045 29.28C83.2325 29.184 84.2405 28.824 85.2965 27.936C86.7365 26.664 87.7685 24.648 89.2805 20.664L92.4485 12.384H90.2165L87.9125 19.2C87.6245 20.04 87.3845 20.928 87.1685 21.624H87.1205C86.9285 20.928 86.6405 20.016 86.3525 19.248L83.8325 12.384H81.5285ZM94.3614 28.752H96.4494V22.44H96.4974C97.1934 23.592 98.5374 24.264 100.073 24.264C102.809 24.264 105.377 22.2 105.377 18.024C105.377 14.52 103.265 12.144 100.433 12.144C98.5374 12.144 97.1454 12.96 96.3054 14.376H96.2574L96.1374 12.384H94.2654C94.3134 13.488 94.3614 14.688 94.3614 16.176V28.752ZM96.4494 17.256C96.4494 16.992 96.5214 16.68 96.5934 16.416C96.9774 14.832 98.3454 13.824 99.7854 13.824C102.017 13.824 103.241 15.816 103.241 18.12C103.241 20.784 101.945 22.608 99.7134 22.608C98.2014 22.608 96.9294 21.6 96.5454 20.136C96.4734 19.872 96.4494 19.584 96.4494 19.272V17.256ZM108.505 10.224V12.384H106.705V13.992H108.505V20.328C108.505 21.696 108.745 22.728 109.321 23.376C109.825 23.928 110.617 24.264 111.601 24.264C112.417 24.264 113.065 24.12 113.473 23.976L113.377 22.368C113.065 22.464 112.729 22.512 112.153 22.512C110.977 22.512 110.569 21.696 110.569 20.256V13.992H113.593V12.384H110.569V9.6L108.505 10.224ZM120.75 12.144C117.558 12.144 114.99 14.424 114.99 18.288C114.99 21.96 117.438 24.264 120.558 24.264C123.342 24.264 126.342 22.392 126.342 18.096C126.342 14.568 124.086 12.144 120.75 12.144ZM120.702 13.728C123.198 13.728 124.182 16.2 124.182 18.168C124.182 20.784 122.67 22.68 120.654 22.68C118.59 22.68 117.15 20.76 117.15 18.216C117.15 16.032 118.23 13.728 120.702 13.728ZM186.609 24.264C187.497 24.264 188.073 23.616 188.073 22.752C188.073 21.864 187.497 21.24 186.657 21.24C185.817 21.24 185.217 21.888 185.217 22.752C185.217 23.616 185.793 24.264 186.609 24.264ZM192.802 24V12.384H190.69V24H192.802ZM191.746 7.8C190.954 7.8 190.426 8.4 190.426 9.12C190.426 9.84 190.93 10.416 191.698 10.416C192.538 10.416 193.042 9.84 193.042 9.12C193.042 8.376 192.514 7.8 191.746 7.8ZM201.235 12.144C198.043 12.144 195.475 14.424 195.475 18.288C195.475 21.96 197.923 24.264 201.043 24.264C203.827 24.264 206.827 22.392 206.827 18.096C206.827 14.568 204.571 12.144 201.235 12.144ZM201.187 13.728C203.683 13.728 204.667 16.2 204.667 18.168C204.667 20.784 203.155 22.68 201.139 22.68C199.075 22.68 197.635 20.76 197.635 18.216C197.635 16.032 198.715 13.728 201.187 13.728Z" fill="#484848"/>
<path d="M139.946 21.816C139.106 22.224 137.81 22.488 136.514 22.488C132.602 22.488 130.322 19.968 130.322 15.984C130.322 11.736 132.842 9.312 136.634 9.312C137.978 9.312 139.106 9.6 139.874 9.984L140.402 8.28C139.85 7.992 138.554 7.56 136.562 7.56C131.546 7.56 128.114 10.968 128.114 16.056C128.114 21.384 131.522 24.264 136.082 24.264C138.05 24.264 139.61 23.88 140.354 23.496L139.946 21.816ZM142.924 24H145.036V16.992C145.036 16.608 145.06 16.296 145.18 15.984C145.588 14.856 146.644 13.896 148.012 13.896C150.004 13.896 150.7 15.456 150.7 17.328V24H152.812V17.088C152.812 13.104 150.316 12.144 148.756 12.144C147.964 12.144 147.22 12.36 146.596 12.72C145.948 13.08 145.42 13.632 145.084 14.232H145.036V6.96H142.924V24ZM165.572 18.576C165.62 18.336 165.644 18.024 165.644 17.592C165.644 15.456 164.66 12.144 160.844 12.144C157.46 12.144 155.396 14.88 155.396 18.384C155.396 21.888 157.532 24.264 161.108 24.264C162.956 24.264 164.252 23.856 164.996 23.52L164.612 22.008C163.844 22.344 162.908 22.608 161.396 22.608C159.26 22.608 157.46 21.432 157.412 18.576H165.572ZM157.436 17.064C157.604 15.6 158.516 13.656 160.676 13.656C163.052 13.656 163.628 15.744 163.604 17.064H157.436ZM167.468 23.448C168.284 23.928 169.46 24.264 170.732 24.264C173.444 24.264 175.052 22.824 175.052 20.76C175.052 19.032 173.996 18.024 172.004 17.28C170.492 16.68 169.82 16.248 169.82 15.288C169.82 14.424 170.492 13.704 171.74 13.704C172.82 13.704 173.66 14.112 174.116 14.4L174.62 12.864C173.996 12.456 172.964 12.144 171.788 12.144C169.316 12.144 167.78 13.68 167.78 15.552C167.78 16.944 168.764 18.072 170.876 18.84C172.412 19.416 173.012 19.944 173.012 20.952C173.012 21.936 172.292 22.68 170.78 22.68C169.724 22.68 168.62 22.248 167.972 21.864L167.468 23.448ZM178.255 10.224V12.384H176.455V13.992H178.255V20.328C178.255 21.696 178.495 22.728 179.071 23.376C179.575 23.928 180.367 24.264 181.351 24.264C182.167 24.264 182.815 24.12 183.223 23.976L183.127 22.368C182.815 22.464 182.479 22.512 181.903 22.512C180.727 22.512 180.319 21.696 180.319 20.256V13.992H183.343V12.384H180.319V9.6L178.255 10.224Z" fill="#EE5790"/>
</svg>
