<svg width="55" height="37" viewBox="0 0 55 37" fill="none" xmlns="http://www.w3.org/2000/svg">
<path d="M55.0004 24.4583C55.0004 25.8333 52.2504 26.75 49.042 27.2083C46.9795 23.3125 42.8545 20.3333 38.042 18.2708C38.5004 17.5833 38.9587 17.125 39.417 16.4375H41.2504C48.3545 16.2083 55.0004 20.5625 55.0004 24.4583ZM15.5837 16.2083H13.7504C6.6462 16.2083 0.000366211 20.5625 0.000366211 24.4583C0.000366211 25.8333 2.75037 26.75 5.9587 27.2083C8.0212 23.3125 12.1462 20.3333 16.9587 18.2708L15.5837 16.2083ZM27.5004 18.5C32.542 18.5 36.667 14.375 36.667 9.33329C36.667 4.29163 32.542 0.166626 27.5004 0.166626C22.4587 0.166626 18.3337 4.29163 18.3337 9.33329C18.3337 14.375 22.4587 18.5 27.5004 18.5ZM27.5004 20.7916C18.1045 20.7916 9.16703 26.75 9.16703 32.25C9.16703 36.8333 27.5004 36.8333 27.5004 36.8333C27.5004 36.8333 45.8337 36.8333 45.8337 32.25C45.8337 26.75 36.8962 20.7916 27.5004 20.7916ZM40.5629 13.9166H41.2504C45.1462 13.9166 48.1254 10.9375 48.1254 7.04163C48.1254 3.14579 45.1462 0.166626 41.2504 0.166626C40.1045 0.166626 39.1879 0.395793 38.2712 0.854126C40.1045 3.14579 41.2504 6.12496 41.2504 9.33329C41.2504 10.9375 41.0212 12.5416 40.5629 13.9166ZM13.7504 13.9166H14.4379C13.9795 12.5416 13.7504 10.9375 13.7504 9.33329C13.7504 6.12496 14.8962 3.14579 16.7295 0.854126C15.8129 0.395793 14.8962 0.166626 13.7504 0.166626C9.85453 0.166626 6.87537 3.14579 6.87537 7.04163C6.87537 10.9375 9.85453 13.9166 13.7504 13.9166Z" fill="#EE5790"/>
</svg>
