<svg width="51" height="37" viewBox="0 0 51 37" fill="none" xmlns="http://www.w3.org/2000/svg">
<path d="M40.4957 29.4063L51.0007 24.1271L25.285 10.7625L0.106079 22.7378L25.5007 36.936L36.9088 31.203L28.7516 27.2344L25.5007 28.8506L15.4723 23.3306L25.4004 18.5515L35.4991 23.8863L32.3486 25.4515L40.4957 29.4063Z" fill="#CC2A6D"/>
<g opacity="0.79">
<path opacity="0.79" d="M40.3598 8.35899L32.6742 12.1517L35.3933 13.5919L25.3949 18.5561L15.3665 13.0362L25.2946 8.25711L28.0137 9.69268L35.7294 5.95095L25.1792 0.468018L0.000305176 12.4434L25.3949 26.6416L50.8949 13.8327L40.3598 8.35899Z" fill="#EA0D63"/>
</g>
<path opacity="0.42" d="M25.5003 36.9359L25.395 26.6416L0.000305176 12.4434L0.105656 22.7377L25.5003 36.9359Z" fill="#E8407C"/>
<path opacity="0.42" d="M50.9953 24.1224L50.895 13.8327L25.1793 0.468018L25.2846 10.7624L50.9953 24.1224Z" fill="#E8407C"/>
</svg>
