<svg width="175" height="37" viewBox="0 0 175 37" fill="none" xmlns="http://www.w3.org/2000/svg">
<path d="M40.4957 29.4063L51.0007 24.1271L25.285 10.7625L0.106079 22.7378L25.5007 36.936L36.9088 31.203L28.7516 27.2344L25.5007 28.8506L15.4723 23.3306L25.4004 18.5515L35.4991 23.8863L32.3486 25.4515L40.4957 29.4063Z" fill="#CC2A6D"/>
<g opacity="0.79">
<path opacity="0.79" d="M40.3598 8.35899L32.6742 12.1517L35.3933 13.5919L25.3949 18.5561L15.3665 13.0362L25.2946 8.25711L28.0137 9.69268L35.7294 5.95095L25.1792 0.468018L0.000305176 12.4434L25.3949 26.6416L50.8949 13.8327L40.3598 8.35899Z" fill="#EA0D63"/>
</g>
<path opacity="0.42" d="M25.5003 36.9359L25.395 26.6416L0.000305176 12.4434L0.105656 22.7377L25.5003 36.9359Z" fill="#E8407C"/>
<path opacity="0.42" d="M50.9953 24.1224L50.895 13.8327L25.1793 0.468018L25.2846 10.7624L50.9953 24.1224Z" fill="#E8407C"/>
<path d="M67.6123 28.912C67.0183 29.164 66.0823 29.344 65.2003 29.344C62.5183 29.344 60.9703 27.652 60.9703 24.97C60.9703 22.054 62.7523 20.506 65.2183 20.506C66.2083 20.506 67.0183 20.722 67.5943 20.974L68.0623 19.21C67.6123 18.976 66.5863 18.67 65.1283 18.67C61.4203 18.67 58.6303 21.082 58.6303 25.078C58.6303 28.786 60.9703 31.198 64.8223 31.198C66.2983 31.198 67.4503 30.91 67.9723 30.658L67.6123 28.912ZM69.7176 31H71.9316V26.446C71.9316 26.212 71.9496 25.978 71.9856 25.78C72.1836 24.772 72.9216 24.106 73.9656 24.106C74.2356 24.106 74.4336 24.124 74.6316 24.16V22.09C74.4516 22.054 74.3256 22.036 74.1096 22.036C73.1556 22.036 72.1296 22.666 71.6976 23.89H71.6436L71.5536 22.234H69.6456C69.6996 23.008 69.7176 23.872 69.7176 25.06V31ZM75.4939 22.234L78.7159 30.28C78.8059 30.496 78.8239 30.622 78.8239 30.712C78.8239 30.82 78.7879 30.946 78.6979 31.108C78.3919 31.702 77.9059 32.224 77.4739 32.494C77.0239 32.818 76.5739 33.016 76.1959 33.106L76.6999 34.96C77.2399 34.888 78.1399 34.6 79.0219 33.844C80.0479 32.944 80.8579 31.486 82.0639 28.21L84.2599 22.234H81.9019L80.5339 26.914C80.3539 27.472 80.1919 28.138 80.0659 28.624H80.0119C79.8859 28.138 79.6879 27.472 79.5079 26.932L77.9419 22.234H75.4939ZM85.5379 34.564H87.7519V30.028H87.7879C88.2379 30.73 89.1559 31.198 90.2539 31.198C92.2519 31.198 94.2499 29.668 94.2499 26.5C94.2499 23.764 92.5759 22.036 90.5599 22.036C89.2279 22.036 88.2019 22.594 87.5539 23.584H87.5179L87.4099 22.234H85.4659C85.5019 23.062 85.5379 23.998 85.5379 25.15V34.564ZM87.7519 25.978C87.7519 25.798 87.7879 25.6 87.8239 25.42C88.0579 24.448 88.9039 23.782 89.8219 23.782C91.2439 23.782 91.9999 25.042 91.9999 26.59C91.9999 28.318 91.1719 29.488 89.7679 29.488C88.8139 29.488 88.0399 28.84 87.8059 27.94C87.7699 27.742 87.7519 27.544 87.7519 27.328V25.978ZM96.4272 20.596V22.234H95.1852V23.89H96.4272V28.012C96.4272 29.164 96.6432 29.974 97.1292 30.478C97.5432 30.928 98.2092 31.198 99.0372 31.198C99.7212 31.198 100.315 31.09 100.639 30.964L100.603 29.29C100.351 29.362 100.135 29.38 99.7392 29.38C98.8932 29.38 98.6052 28.84 98.6052 27.76V23.89H100.711V22.234H98.6052V19.984L96.4272 20.596ZM106.25 22.036C103.604 22.036 101.714 23.8 101.714 26.68C101.714 29.506 103.64 31.198 106.106 31.198C108.338 31.198 110.606 29.758 110.606 26.536C110.606 23.872 108.86 22.036 106.25 22.036ZM106.196 23.638C107.708 23.638 108.32 25.222 108.32 26.59C108.32 28.372 107.438 29.596 106.178 29.596C104.846 29.596 104 28.318 104 26.626C104 25.168 104.63 23.638 106.196 23.638ZM157.44 31.198C158.286 31.198 158.826 30.586 158.826 29.776C158.826 28.93 158.268 28.354 157.458 28.354C156.666 28.354 156.09 28.948 156.09 29.776C156.09 30.586 156.648 31.198 157.44 31.198ZM162.828 31V22.234H160.614V31H162.828ZM161.73 18.58C160.992 18.58 160.488 19.102 160.488 19.786C160.488 20.434 160.974 20.974 161.712 20.974C162.486 20.974 162.972 20.434 162.972 19.786C162.954 19.102 162.486 18.58 161.73 18.58ZM169.198 22.036C166.552 22.036 164.662 23.8 164.662 26.68C164.662 29.506 166.588 31.198 169.054 31.198C171.286 31.198 173.554 29.758 173.554 26.536C173.554 23.872 171.808 22.036 169.198 22.036ZM169.144 23.638C170.656 23.638 171.268 25.222 171.268 26.59C171.268 28.372 170.386 29.596 169.126 29.596C167.794 29.596 166.948 28.318 166.948 26.626C166.948 25.168 167.578 23.638 169.144 23.638Z" fill="#484848"/>
<path d="M120.856 28.912C120.262 29.164 119.326 29.344 118.444 29.344C115.762 29.344 114.214 27.652 114.214 24.97C114.214 22.054 115.996 20.506 118.462 20.506C119.452 20.506 120.262 20.722 120.838 20.974L121.306 19.21C120.856 18.976 119.83 18.67 118.372 18.67C114.664 18.67 111.874 21.082 111.874 25.078C111.874 28.786 114.214 31.198 118.066 31.198C119.542 31.198 120.694 30.91 121.216 30.658L120.856 28.912ZM122.962 31H125.176V25.744C125.176 25.51 125.194 25.276 125.266 25.078C125.518 24.412 126.13 23.836 126.994 23.836C128.218 23.836 128.686 24.808 128.686 26.068V31H130.9V25.834C130.9 23.026 129.334 22.036 127.84 22.036C127.282 22.036 126.76 22.18 126.31 22.432C125.86 22.666 125.482 23.008 125.212 23.422H125.176V18.22H122.962V31ZM140.697 27.238C140.733 27.04 140.769 26.716 140.769 26.302C140.769 24.376 139.833 22.036 136.989 22.036C134.181 22.036 132.705 24.322 132.705 26.752C132.705 29.434 134.379 31.18 137.223 31.18C138.483 31.18 139.527 30.946 140.283 30.622L139.959 29.11C139.275 29.344 138.555 29.506 137.529 29.506C136.107 29.506 134.883 28.822 134.829 27.238H140.697ZM134.829 25.69C134.919 24.79 135.495 23.548 136.863 23.548C138.339 23.548 138.699 24.88 138.681 25.69H134.829ZM142.004 30.568C142.652 30.928 143.606 31.18 144.668 31.18C146.99 31.18 148.232 30.028 148.232 28.426C148.214 27.13 147.494 26.32 145.892 25.762C144.776 25.348 144.362 25.096 144.362 24.538C144.362 23.998 144.794 23.602 145.586 23.602C146.36 23.602 147.08 23.89 147.44 24.106L147.89 22.558C147.368 22.27 146.522 22.036 145.55 22.036C143.516 22.036 142.238 23.224 142.238 24.772C142.238 25.816 142.94 26.752 144.65 27.328C145.73 27.724 146.09 28.012 146.09 28.606C146.09 29.182 145.658 29.596 144.686 29.596C143.894 29.596 142.94 29.254 142.454 28.948L142.004 30.568ZM150.41 20.596V22.234H149.168V23.89H150.41V28.012C150.41 29.164 150.626 29.974 151.112 30.478C151.526 30.928 152.192 31.198 153.02 31.198C153.704 31.198 154.298 31.09 154.622 30.964L154.586 29.29C154.334 29.362 154.118 29.38 153.722 29.38C152.876 29.38 152.588 28.84 152.588 27.76V23.89H154.694V22.234H152.588V19.984L150.41 20.596Z" fill="#EE5790"/>
</svg>
