<svg width="406" height="373" viewBox="0 0 406 373" fill="none" xmlns="http://www.w3.org/2000/svg">
<path d="M419.243 295.598L528 241.672L261.769 105.154L1.09534 227.481L264.002 372.514L382.108 313.952L297.658 273.413L264.002 289.922L160.179 233.536L262.964 184.718L367.513 239.212L334.897 255.201L419.243 295.598Z" fill="#CC2A6D"/>
<g opacity="0.79">
<path opacity="0.79" d="M417.836 80.6052L338.268 119.347L366.418 134.058L262.907 184.767L159.084 128.382L261.868 79.5645L290.018 94.2286L369.898 56.0073L260.674 0L0 122.327L262.907 267.359L526.905 136.518L417.836 80.6052Z" fill="#EA0D63"/>
</g>
<path opacity="0.42" d="M263.998 372.513L262.907 267.36L0 122.33L1.09068 227.483L263.998 372.513Z" fill="#E8407C"/>
<path opacity="0.42" d="M527.943 241.625L526.904 136.517L260.674 0L261.764 105.155L527.943 241.625Z" fill="#E8407C"/>
</svg>
