<svg width="27" height="28" viewBox="0 0 27 28" fill="none" xmlns="http://www.w3.org/2000/svg">
<path d="M16.5264 12.2545C16.1078 13.9286 13.5019 13.0781 12.6918 12.8485L13.4344 9.90534C14.2715 10.1484 16.9584 10.4994 16.5264 12.2545ZM12.3273 14.3607L11.5172 17.6144C12.5163 17.8709 15.6082 18.8565 16.0673 17.0203C16.5534 15.1032 13.3264 14.6037 12.3273 14.3607ZM26.5988 17.4659C24.7896 24.7024 17.4715 29.1037 10.2345 27.2946C2.99743 25.4854 -1.40015 18.1679 0.40506 10.9314C0.833939 9.21151 1.59746 7.59294 2.65201 6.16814C3.70656 4.74334 5.03149 3.54022 6.55112 2.62751C8.07074 1.7148 9.7553 1.11037 11.5086 0.84874C13.2618 0.587113 15.0495 0.673414 16.7694 1.10272C23.9929 2.91184 28.3946 10.2294 26.5988 17.4659ZM16.4859 8.86577L17.0935 6.43559L15.6082 6.09807L15.0142 8.43373C14.6226 8.33923 14.231 8.24472 13.826 8.16372L14.4201 5.77405L12.9484 5.42302L12.3408 7.83969C12.0167 7.75869 11.6927 7.69118 11.3956 7.61018L9.35684 7.09714L8.95179 8.67675C8.95179 8.67675 10.0589 8.93327 10.0319 8.94677C10.6395 9.09528 10.7475 9.47331 10.7205 9.81083L9.0598 16.4668C8.99229 16.6558 8.77626 16.8988 8.38471 16.8313C8.39821 16.8448 7.30455 16.5613 7.30455 16.5613L6.57545 18.2489L8.49272 18.735C8.85727 18.8295 9.20832 18.924 9.55937 19.005L8.93828 21.4622L10.4235 21.8402L11.0311 19.3965C11.4361 19.5045 11.8277 19.599 12.2058 19.707L11.5982 22.1237L13.0834 22.5017L13.7045 20.0446C16.2023 20.5171 18.1196 20.3281 18.9027 18.0464C19.5778 16.2238 18.9027 15.1437 17.5525 14.4552C18.5247 14.1986 19.2538 13.5911 19.4563 12.268C19.7263 10.4724 18.3491 9.51381 16.4859 8.86577Z" fill="url(#paint0_linear)"/>
<defs>
<linearGradient id="paint0_linear" x1="29.1248" y1="9.24123" x2="-2.68818" y2="9.19491" gradientUnits="userSpaceOnUse">
<stop stop-color="#35D3FF"/>
<stop offset="1" stop-color="#4048CC"/>
</linearGradient>
</defs>
</svg>
