<svg width="27" height="28" viewBox="0 0 27 28" fill="none" xmlns="http://www.w3.org/2000/svg">
<path d="M13.5 0.700928C6.04463 0.700928 0 6.74555 0 14.2009C0 21.6563 6.04463 27.7009 13.5 27.7009C20.9554 27.7009 27 21.6563 27 14.2009C27 6.74555 20.9554 0.700928 13.5 0.700928ZM20.1307 9.94955L17.9145 20.3896C17.7514 21.1298 17.3104 21.3098 16.695 20.9611L13.32 18.4748L11.6932 20.0431C11.6135 20.1462 11.5113 20.2298 11.3943 20.2873C11.2773 20.3448 11.1486 20.3748 11.0182 20.3749H11.0126L11.2522 16.9392L17.5072 11.2894C17.7772 11.0498 17.4465 10.9137 17.0876 11.1533L9.36 16.0201L6.03 14.9806C5.31 14.7522 5.28975 14.2606 6.18187 13.9073L19.1936 8.89205C19.7989 8.67155 20.3254 9.03605 20.1296 9.95068L20.1307 9.94955Z" fill="url(#paint0_linear)"/>
<defs>
<linearGradient id="paint0_linear" x1="29.1248" y1="9.24123" x2="-2.68818" y2="9.19491" gradientUnits="userSpaceOnUse">
<stop stop-color="#35D3FF"/>
<stop offset="1" stop-color="#4048CC"/>
</linearGradient>
</defs>
</svg>
