<svg width="27" height="28" viewBox="0 0 27 28" fill="none" xmlns="http://www.w3.org/2000/svg">
<path d="M13.5 26.7131C20.4037 26.7131 26 21.1169 26 14.2131C26 7.30939 20.4037 1.71313 13.5 1.71313C6.59625 1.71313 1 7.30939 1 14.2131C1 21.1169 6.59625 26.7131 13.5 26.7131Z" fill="url(#paint0_linear)" stroke="url(#paint1_linear)" stroke-width="2" stroke-linecap="round" stroke-linejoin="round"/>
<path d="M1 14.2133H26" stroke="white" stroke-width="2" stroke-linecap="round" stroke-linejoin="round"/>
<path d="M13.5 26.7131C16.2613 26.7131 18.5 21.1169 18.5 14.2131C18.5 7.30939 16.2613 1.71313 13.5 1.71313C10.7387 1.71313 8.5 7.30939 8.5 14.2131C8.5 21.1169 10.7387 26.7131 13.5 26.7131Z" stroke="white" stroke-width="2" stroke-linecap="round" stroke-linejoin="round"/>
<path d="M4.66125 5.552C5.82068 6.71446 7.1984 7.63633 8.71525 8.26464C10.2321 8.89295 11.8582 9.2153 13.5 9.21318V9.21318C15.1418 9.2153 16.7679 8.89295 18.2848 8.26464C19.8016 7.63633 21.1793 6.71446 22.3387 5.552" stroke="white" stroke-width="2" stroke-linecap="round" stroke-linejoin="round"/>
<path d="M22.3387 22.8744C21.1793 21.712 19.8016 20.7901 18.2848 20.1618C16.7679 19.5335 15.1418 19.2111 13.5 19.2133C11.8582 19.2111 10.2321 19.5335 8.71525 20.1618C7.1984 20.7901 5.82068 21.712 4.66125 22.8744" stroke="white" stroke-width="2" stroke-linecap="round" stroke-linejoin="round"/>
<defs>
<linearGradient id="paint0_linear" x1="27.9674" y1="9.62082" x2="-1.48906" y2="9.57793" gradientUnits="userSpaceOnUse">
<stop stop-color="#35D3FF"/>
<stop offset="1" stop-color="#4048CC"/>
</linearGradient>
<linearGradient id="paint1_linear" x1="27.9674" y1="9.62082" x2="-1.48906" y2="9.57793" gradientUnits="userSpaceOnUse">
<stop stop-color="#35D3FF"/>
<stop offset="1" stop-color="#4048CC"/>
</linearGradient>
</defs>
</svg>
