<svg width="27" height="27" viewBox="0 0 27 27" fill="none" xmlns="http://www.w3.org/2000/svg">
<circle cx="13.5" cy="13.5" r="13.5" fill="url(#paint0_linear)"/>
<path d="M19.2377 8.99469C18.0707 8.52622 16.8392 8.19217 15.574 8.0009C15.5625 7.99893 15.5505 8.00022 15.5399 8.00458C15.5292 8.00894 15.5204 8.01615 15.5148 8.02517C15.3573 8.27116 15.1818 8.59193 15.0588 8.84513C13.6949 8.66394 12.3075 8.66394 10.9437 8.84513C10.8068 8.56457 10.6523 8.29084 10.4809 8.02517C10.475 8.01635 10.4662 8.00932 10.4556 8.00498C10.445 8.00065 10.4332 7.99923 10.4217 8.0009C9.15635 8.19177 7.92479 8.52584 6.75803 8.99469C6.74815 8.99832 6.73978 9.0045 6.73403 9.01241C4.4001 12.062 3.76037 15.0362 4.07461 17.973C4.07537 17.9803 4.07783 17.9874 4.08182 17.9938C4.08582 18.0002 4.09128 18.0059 4.09786 18.0104C5.45651 18.8908 6.97636 19.5629 8.59248 19.998C8.60387 20.0009 8.61599 20.0007 8.62725 19.9974C8.6385 19.9941 8.64834 19.9879 8.65548 19.9796C9.00197 19.5664 9.31096 19.1301 9.57495 18.6716C9.57864 18.6653 9.58076 18.6585 9.58119 18.6514C9.58162 18.6444 9.58034 18.6374 9.57744 18.6308C9.57453 18.6242 9.57007 18.6183 9.56434 18.6133C9.55861 18.6084 9.55175 18.6045 9.5442 18.6021C9.05928 18.4398 8.58983 18.2441 8.14024 18.0169C8.132 18.0128 8.12506 18.0069 8.12005 17.9998C8.11504 17.9927 8.11211 17.9847 8.11151 17.9764C8.11092 17.9681 8.11268 17.9597 8.11665 17.9522C8.12061 17.9446 8.12666 17.938 8.13424 17.933C8.22892 17.871 8.32194 17.8072 8.41323 17.7414C8.42122 17.7358 8.43085 17.7322 8.44104 17.731C8.45124 17.7298 8.46161 17.7312 8.47098 17.7349C11.4169 18.911 14.6058 18.911 17.5172 17.7349C17.5267 17.731 17.5372 17.7296 17.5475 17.7308C17.5579 17.732 17.5677 17.7356 17.5757 17.7414C17.6657 17.8057 17.7602 17.8713 17.8555 17.933C17.863 17.9379 17.869 17.9444 17.8729 17.9518C17.8769 17.9593 17.8788 17.9675 17.8783 17.9757C17.8779 17.9839 17.8752 17.9919 17.8704 17.9989C17.8656 18.006 17.859 18.012 17.851 18.0163C17.4024 18.2456 16.9325 18.4413 16.4462 18.6014C16.4387 18.604 16.4318 18.6079 16.4261 18.6129C16.4203 18.6179 16.4159 18.6239 16.413 18.6305C16.4101 18.6371 16.4088 18.6442 16.4092 18.6513C16.4097 18.6584 16.4118 18.6653 16.4155 18.6716C16.6855 19.1295 16.9945 19.565 17.3342 19.979C17.3412 19.9874 17.3511 19.9937 17.3624 19.997C17.3736 20.0003 17.3858 20.0004 17.3972 19.9973C19.016 19.5636 20.5384 18.8914 21.8986 18.0097C21.9052 18.0056 21.9108 18.0004 21.9149 17.9943C21.919 17.9881 21.9217 17.9814 21.9226 17.9743C22.2976 14.5783 21.2941 11.6284 19.2609 9.01372C19.2562 9.0049 19.2479 8.99856 19.2377 8.99469ZM10.0152 16.1842C9.12796 16.1842 8.39748 15.4724 8.39748 14.5974C8.39748 13.7229 9.11446 13.0106 10.0152 13.0106C10.9227 13.0106 11.6471 13.7295 11.6329 14.598C11.6329 15.4724 10.9159 16.1842 10.0152 16.1842ZM15.9963 16.1842C15.109 16.1842 14.3786 15.4724 14.3786 14.5974C14.3786 13.7229 15.0948 13.0106 15.9963 13.0106C16.9037 13.0106 17.6282 13.7295 17.614 14.598C17.614 15.4724 16.9045 16.1842 15.9963 16.1842Z" fill="white"/>
<defs>
<linearGradient id="paint0_linear" x1="29.1248" y1="8.5403" x2="-2.68818" y2="8.49398" gradientUnits="userSpaceOnUse">
<stop stop-color="#35D3FF"/>
<stop offset="1" stop-color="#4048CC"/>
</linearGradient>
</defs>
</svg>
