<svg width="99" height="99" viewBox="0 0 99 99" fill="none" xmlns="http://www.w3.org/2000/svg">
<path d="M37.125 68.0625C54.2113 68.0625 68.0625 54.2113 68.0625 37.125C68.0625 20.0387 54.2113 6.1875 37.125 6.1875C20.0387 6.1875 6.1875 20.0387 6.1875 37.125C6.1875 54.2113 20.0387 68.0625 37.125 68.0625Z" fill="#ED80A7"/>
<path d="M41.8687 33V36.5063H34.0312V39.3938H41.8687V42.9H34.0312C34.0312 44.1375 34.2375 45.375 34.65 46.2C35.0625 47.025 35.475 47.85 36.0937 48.2625C36.7125 48.8813 37.5375 49.0875 38.3625 49.5C39.1875 49.7063 40.2187 49.9125 41.25 49.9125C42.075 49.9125 42.6937 49.9125 43.5187 49.7063C44.3437 49.5 44.9625 49.5 45.5812 49.0875L46.4062 54.6563C45.5812 54.8625 44.55 55.0688 43.5187 55.0688C42.4875 55.275 41.4562 55.275 40.425 55.275C38.5687 55.275 36.7125 55.0688 35.0625 54.45C33.4125 54.0375 31.9687 53.2125 30.9375 52.1813C29.7 51.15 28.875 49.9125 28.05 48.2625C27.4312 46.8188 27.0187 44.9625 27.0187 42.9H23.1V39.3938H27.0187V36.5063H23.1V33H27.0187C27.225 30.9375 27.6375 29.2875 28.2562 27.6375C29.0812 26.1938 29.9062 24.75 31.1437 23.7188C32.3812 22.6875 33.825 21.8625 35.475 21.45C37.125 20.8312 38.9812 20.625 40.8375 20.625C41.6625 20.625 42.6937 20.625 43.5187 20.8313C44.3437 21.0375 45.375 21.0375 46.2 21.45L45.375 27.0188C44.7562 26.8125 44.1375 26.6063 43.3125 26.4C42.4875 26.1938 41.8687 26.1938 41.0437 26.1938C40.0125 26.1938 38.9812 26.4 38.1562 26.6063C37.3312 26.8125 36.5062 27.225 36.0937 27.8438C35.475 28.4625 35.0625 29.0813 34.65 29.9063C34.2375 30.7313 34.0312 31.7625 34.0312 33H41.8687Z" fill="#FFF59D"/>
<path d="M61.875 92.8125C78.9613 92.8125 92.8125 78.9613 92.8125 61.875C92.8125 44.7887 78.9613 30.9375 61.875 30.9375C44.7887 30.9375 30.9375 44.7887 30.9375 61.875C30.9375 78.9613 44.7887 92.8125 61.875 92.8125Z" fill="#EE5790"/>
<path d="M58.575 55.6875C58.7812 56.1 58.9875 56.5125 59.4 56.925C59.8125 57.3375 60.225 57.75 60.8437 57.9563C61.4625 58.3688 62.2875 58.575 63.1125 58.9875C64.5562 59.6063 66 60.225 67.2375 60.8438C68.475 61.4625 69.5062 62.2875 70.3312 63.1125C71.1562 63.9375 71.9812 64.9688 72.3937 66C72.8062 67.0313 73.2187 68.475 73.2187 69.9188C73.2187 71.3625 73.0125 72.6 72.6 73.6313C72.1875 74.6625 71.5687 75.6938 70.7437 76.5188C69.9187 77.3438 68.8875 77.9625 67.8562 78.375C66.6187 78.7875 65.3812 79.2 64.1437 79.4063V83.9438H60.4312V79.4063C59.1937 79.2 57.9562 78.9938 56.7187 78.5813C55.4812 78.1688 54.45 77.55 53.625 76.5188C52.5937 75.6938 51.975 74.4563 51.3562 73.2188C50.7375 71.9813 50.5312 70.3313 50.5312 68.475H57.3375C57.3375 69.5063 57.5437 70.5375 57.75 71.1563C57.9562 71.9813 58.3687 72.3938 58.9875 73.0125C59.4 73.425 60.0187 73.8375 60.6375 74.0438C61.2562 74.25 61.875 74.25 62.4937 74.25C63.3187 74.25 63.9375 74.25 64.35 74.0438C64.9687 73.8375 65.3812 73.6313 65.7937 73.2188C66.2062 72.8063 66.4125 72.3938 66.6187 71.9813C66.825 71.5688 66.825 70.95 66.825 70.3313C66.825 69.7125 66.825 69.0938 66.6187 68.6813C66.4125 68.2688 66.2062 67.65 65.7937 67.2375C65.3812 66.825 64.9687 66.4125 64.35 66.2063C63.7312 65.7938 62.9062 65.5875 62.0812 65.175C60.6375 64.5563 59.1937 63.9375 57.9562 63.3188C56.7187 62.7 55.6875 61.875 54.8625 61.05C54.0375 60.225 53.2125 59.1938 52.8 58.1625C52.3875 57.1313 51.975 55.6875 51.975 54.2438C51.975 53.0063 52.1812 51.7688 52.5937 50.7375C53.0062 49.7063 53.625 48.675 54.45 47.85C55.275 47.025 56.3062 46.4063 57.3375 45.7875C58.3687 45.375 59.8125 44.9625 61.05 44.7563V39.8063H64.7625V44.7563C66 44.9625 67.2375 45.375 68.475 45.9938C69.5062 46.6125 70.5375 47.2313 71.1562 48.2625C71.9812 49.0875 72.6 50.325 73.0125 51.5625C73.425 52.8 73.6312 54.2438 73.6312 55.6875H66.825C66.825 53.8313 66.4125 52.3875 65.5875 51.5625C64.7625 50.7375 63.7312 50.1188 62.4937 50.1188C61.875 50.1188 61.2562 50.325 60.6375 50.5313C60.225 50.7375 59.8125 50.9438 59.4 51.3563C58.9875 51.7688 58.7812 52.1813 58.7812 52.5938C58.575 53.0063 58.575 53.625 58.575 54.2438C58.3687 54.6563 58.575 55.275 58.575 55.6875Z" fill="white"/>
</svg>
