<svg width="95" height="95" viewBox="0 0 95 95" fill="none" xmlns="http://www.w3.org/2000/svg">
<path d="M79.1667 81.1458H15.8334C11.4792 81.1458 7.91675 77.5833 7.91675 73.2292V31.8646C7.91675 29.2917 9.10425 26.9167 11.2813 25.3333L47.5001 0L83.7188 25.3333C85.8959 26.7188 87.0834 29.2917 87.0834 31.8646V73.2292C87.0834 77.5833 83.5209 81.1458 79.1667 81.1458Z" fill="white"/>
<path d="M27.7083 1.97913H67.2916V63.3333H27.7083V1.97913Z" fill="#FFC5F9"/>
<path d="M25.7292 0V65.3125H69.2709V0H25.7292ZM65.3126 61.3542H29.6876V3.95833H65.3126V61.3542Z" fill="#EE5790"/>
<path d="M67.2918 5.93746C67.2918 9.30204 66.6981 11.875 63.3335 11.875C59.9689 11.875 57.396 9.30204 57.396 5.93746C57.396 2.57288 59.9689 1.97913 63.3335 1.97913C66.6981 1.97913 67.2918 2.57288 67.2918 5.93746Z" fill="#EE5790"/>
<path d="M31.6668 1.97913C35.0314 1.97913 37.6043 2.57288 37.6043 5.93746C37.6043 9.30204 35.0314 11.875 31.6668 11.875C28.3022 11.875 27.7085 9.30204 27.7085 5.93746C27.7085 2.57288 28.3022 1.97913 31.6668 1.97913Z" fill="#EE5790"/>
<path d="M47.5001 19.7917C49.6862 19.7917 51.4584 18.0195 51.4584 15.8333C51.4584 13.6472 49.6862 11.875 47.5001 11.875C45.314 11.875 43.5417 13.6472 43.5417 15.8333C43.5417 18.0195 45.314 19.7917 47.5001 19.7917Z" fill="#EE5790"/>
<path d="M47.5 51.4584C54.0584 51.4584 59.375 46.1418 59.375 39.5834C59.375 33.025 54.0584 27.7084 47.5 27.7084C40.9416 27.7084 35.625 33.025 35.625 39.5834C35.625 46.1418 40.9416 51.4584 47.5 51.4584Z" fill="#EE5790"/>
<path d="M79.1667 81.1459H15.8334C11.4792 81.1459 7.91675 77.5834 7.91675 73.2292V33.6459L47.5001 59.375L87.0834 33.6459V73.2292C87.0834 77.5834 83.5209 81.1459 79.1667 81.1459Z" fill="#ED80A7"/>
</svg>
