<svg width="97" height="97" viewBox="0 0 97 97" fill="none" xmlns="http://www.w3.org/2000/svg">
<path d="M23.6437 43.6501L33.9499 63.6563L53.1478 55.7751L62.0395 30.1105L32.1312 31.7271L23.6437 43.6501Z" fill="#EE5790"/>
<path d="M30.3124 88.5124C39.0178 88.5124 46.0749 81.4553 46.0749 72.7499C46.0749 64.0445 39.0178 56.9874 30.3124 56.9874C21.607 56.9874 14.5499 64.0445 14.5499 72.7499C14.5499 81.4553 21.607 88.5124 30.3124 88.5124Z" fill="white"/>
<path d="M30.3125 54.5625C20.2083 54.5625 12.125 62.6458 12.125 72.75C12.125 82.8542 20.2083 90.9375 30.3125 90.9375C40.4167 90.9375 48.5 82.8542 48.5 72.75C48.5 62.6458 40.4167 54.5625 30.3125 54.5625ZM30.3125 86.8958C22.4312 86.8958 16.1667 80.6312 16.1667 72.75C16.1667 64.8687 22.4312 58.6042 30.3125 58.6042C38.1937 58.6042 44.4583 64.8687 44.4583 72.75C44.4583 80.6312 38.1937 86.8958 30.3125 86.8958Z" fill="#E8407C"/>
<path d="M28.2917 66.6875H32.3333V82.8542H28.2917V66.6875Z" fill="#E8407C"/>
<path d="M26.0688 72.75C28.0896 76.5896 32.5355 78.2062 36.3751 76.1854L69.7188 59.0083C71.7396 57.9979 73.1542 56.5833 74.1646 55.1687C77.6 48.7021 85.4813 33.5458 90.7355 20.4104L53.9563 37.9916L44.2563 52.5417L30.5146 59.8167C25.2605 62.4437 23.6438 68.3042 26.0688 72.75Z" fill="#FFC5F9"/>
<path d="M61.0292 6.0625L27.6854 18.7938C26.2709 19.1979 24.6542 20.8146 23.2396 22.2292L11.9229 37.3854C9.9021 40.4167 9.49794 44.2563 10.9125 47.6917C11.7209 49.7125 14.3479 54.5625 17.1771 60.0188C20.4104 56.5833 25.0584 54.5625 30.3125 54.5625C31.1209 54.5625 32.1313 54.5625 32.9396 54.7646L28.6959 46.2771L37.9917 37.9917H54.1583C54.1583 37.9917 85.4813 33.5458 90.9375 20.4104L61.0292 6.0625Z" fill="#FFC5F9"/>
<path d="M36.7792 72.75C34.1521 73.9625 31.1208 72.75 30.1104 70.123C28.8979 67.4959 30.1104 64.4646 32.7375 63.4542C35.1625 62.2417 39.2042 71.5375 36.7792 72.75Z" fill="#FFCDD2"/>
</svg>
