<svg width="90" height="90" viewBox="0 0 90 90" fill="none" xmlns="http://www.w3.org/2000/svg">
<path d="M72 24.3749L45.1875 11.9999L8.62501 22.6874L25.125 47.4374L21 75.7499H63.5625L75.9375 50.8124L72 24.3749ZM60.1875 70.3124H27.5625L30.9375 46.1249L17.625 26.0624L44.8125 17.9999L66.75 28.1249L70.125 50.0624L60.1875 70.3124Z" fill="#FFC5F9"/>
<path d="M45 22.5C49.1421 22.5 52.5 19.1421 52.5 15C52.5 10.8579 49.1421 7.5 45 7.5C40.8579 7.5 37.5 10.8579 37.5 15C37.5 19.1421 40.8579 22.5 45 22.5Z" fill="#EE5790"/>
<path d="M69.375 33.75C73.5171 33.75 76.875 30.3921 76.875 26.25C76.875 22.1079 73.5171 18.75 69.375 18.75C65.2329 18.75 61.875 22.1079 61.875 26.25C61.875 30.3921 65.2329 33.75 69.375 33.75Z" fill="#EE5790"/>
<path d="M73.125 58.125C77.2671 58.125 80.625 54.7671 80.625 50.625C80.625 46.4829 77.2671 43.125 73.125 43.125C68.9829 43.125 65.625 46.4829 65.625 50.625C65.625 54.7671 68.9829 58.125 73.125 58.125Z" fill="#EE5790"/>
<path d="M13.125 31.875C17.2671 31.875 20.625 28.5171 20.625 24.375C20.625 20.2329 17.2671 16.875 13.125 16.875C8.98286 16.875 5.625 20.2329 5.625 24.375C5.625 28.5171 8.98286 31.875 13.125 31.875Z" fill="#EE5790"/>
<path d="M24.375 80.625C28.5171 80.625 31.875 77.2671 31.875 73.125C31.875 68.9829 28.5171 65.625 24.375 65.625C20.2329 65.625 16.875 68.9829 16.875 73.125C16.875 77.2671 20.2329 80.625 24.375 80.625Z" fill="#EE5790"/>
<path d="M28.125 54.375C32.2671 54.375 35.625 51.0171 35.625 46.875C35.625 42.7329 32.2671 39.375 28.125 39.375C23.9829 39.375 20.625 42.7329 20.625 46.875C20.625 51.0171 23.9829 54.375 28.125 54.375Z" fill="#EE5790"/>
<path d="M61.875 80.625C66.0171 80.625 69.375 77.2671 69.375 73.125C69.375 68.9829 66.0171 65.625 61.875 65.625C57.7329 65.625 54.375 68.9829 54.375 73.125C54.375 77.2671 57.7329 80.625 61.875 80.625Z" fill="#EE5790"/>
</svg>
