<svg width="100" height="100" viewBox="0 0 100 100" fill="none" xmlns="http://www.w3.org/2000/svg">
<path d="M50 8.33337C38.5416 8.33337 29.1666 17.7084 29.1666 29.1667V37.5H37.5V29.1667C37.5 22.2917 43.125 16.6667 50 16.6667C56.875 16.6667 62.5 22.2917 62.5 29.1667V37.5H70.8333V29.1667C70.8333 17.7084 61.4583 8.33337 50 8.33337Z" fill="#FFC5F9"/>
<path d="M75 91.6667H25C20.4166 91.6667 16.6666 87.9167 16.6666 83.3333V45.8333C16.6666 41.25 20.4166 37.5 25 37.5H75C79.5833 37.5 83.3333 41.25 83.3333 45.8333V83.3333C83.3333 87.9167 79.5833 91.6667 75 91.6667Z" fill="#EE5790"/>
<path d="M50 70.8334C53.4518 70.8334 56.25 68.0352 56.25 64.5834C56.25 61.1316 53.4518 58.3334 50 58.3334C46.5482 58.3334 43.75 61.1316 43.75 64.5834C43.75 68.0352 46.5482 70.8334 50 70.8334Z" fill="#FFC5F9"/>
</svg>
