<svg width="95" height="95" viewBox="0 0 95 95" fill="none" xmlns="http://www.w3.org/2000/svg">
<path d="M47.5001 83.125C69.3614 83.125 87.0834 65.403 87.0834 43.5417C87.0834 21.6804 69.3614 3.95837 47.5001 3.95837C25.6388 3.95837 7.91675 21.6804 7.91675 43.5417C7.91675 65.403 25.6388 83.125 47.5001 83.125Z" fill="#FFC5F9"/>
<path d="M73.2291 43.5417C73.2291 28.3021 60.1666 16.2292 44.5312 18.0104C32.6562 19.3958 23.1562 28.8958 21.9687 40.7708C20.9791 49.875 24.7395 57.9896 31.0729 63.1354C33.8437 65.5104 35.6249 68.875 35.6249 72.6354V73.2292H59.3749V73.0312C59.3749 69.4687 60.9583 65.9062 63.7291 63.5312C69.4687 58.7812 73.2291 51.6562 73.2291 43.5417Z" fill="#EE5790"/>
<path d="M60.5627 39.9792L54.6252 36.0209C54.0315 35.625 53.0419 35.625 52.4482 36.0209L47.5002 39.1875L42.7502 36.0209C42.1565 35.625 41.1669 35.625 40.5732 36.0209L34.6357 39.9792C34.2398 40.375 33.844 40.7709 33.844 41.3646C33.844 41.9584 33.844 42.5521 34.2398 42.948L41.7607 52.25V73.2292H45.719V51.4584C45.719 51.0625 45.5211 50.6667 45.3232 50.2709L38.7919 42.1563L41.7607 40.1771L46.5107 43.3438C47.1044 43.7396 48.094 43.7396 48.6877 43.3438L53.4377 40.1771L56.4065 42.1563L49.8752 50.2709C49.6773 50.6667 49.4794 51.0625 49.4794 51.4584V73.2292H53.4377V52.25L60.9586 42.948C61.3544 42.5521 61.5523 41.9584 61.3544 41.3646C61.1565 40.7709 60.9586 40.1771 60.5627 39.9792Z" fill="#FFC5F9"/>
<path d="M47.5 93.0209C50.7792 93.0209 53.4375 90.3626 53.4375 87.0834C53.4375 83.8042 50.7792 81.1459 47.5 81.1459C44.2208 81.1459 41.5625 83.8042 41.5625 87.0834C41.5625 90.3626 44.2208 93.0209 47.5 93.0209Z" fill="#ED80A7"/>
<path d="M51.4583 89.0625H43.5417C39.1875 89.0625 35.625 85.5 35.625 81.1458V71.25H59.375V81.1458C59.375 85.5 55.8125 89.0625 51.4583 89.0625Z" fill="white"/>
<path d="M59.3748 81.1458L36.4165 84.3124C37.0103 85.6978 38.1978 87.0833 39.5832 87.8749L58.1873 85.302C58.979 84.1145 59.3748 82.7291 59.3748 81.1458Z" fill="#ED80A7"/>
<path d="M35.625 76.5937V80.552L59.375 77.1875V73.2291L35.625 76.5937Z" fill="#ED80A7"/>
</svg>
