<svg width="90" height="90" viewBox="0 0 90 90" fill="none" xmlns="http://www.w3.org/2000/svg">
<path d="M45 82.5C65.7107 82.5 82.5 65.7107 82.5 45C82.5 24.2893 65.7107 7.5 45 7.5C24.2893 7.5 7.5 24.2893 7.5 45C7.5 65.7107 24.2893 82.5 45 82.5Z" fill="#EE5790"/>
<path d="M45 75C61.5685 75 75 61.5685 75 45C75 28.4315 61.5685 15 45 15C28.4315 15 15 28.4315 15 45C15 61.5685 28.4315 75 45 75Z" fill="#FFC5F9"/>
<path d="M43.125 20.625H46.875V45H43.125V20.625Z" fill="#EE5790"/>
<path d="M58.6594 55.6013L55.6125 58.65L43.4175 46.455L46.4663 43.4044L58.6594 55.6013Z" fill="#EE5790"/>
<path d="M45 48.75C47.0711 48.75 48.75 47.0711 48.75 45C48.75 42.9289 47.0711 41.25 45 41.25C42.9289 41.25 41.25 42.9289 41.25 45C41.25 47.0711 42.9289 48.75 45 48.75Z" fill="#EE5790"/>
<path d="M45 46.875C46.0355 46.875 46.875 46.0355 46.875 45C46.875 43.9645 46.0355 43.125 45 43.125C43.9645 43.125 43.125 43.9645 43.125 45C43.125 46.0355 43.9645 46.875 45 46.875Z" fill="#FFC5F9"/>
</svg>
