<svg width="98" height="98" viewBox="0 0 98 98" fill="none" xmlns="http://www.w3.org/2000/svg">
<path d="M77.5833 26.5417C70.8458 26.5417 65.3333 24.7042 65.3333 22.4584V26.5417C65.3333 28.7875 70.8458 30.625 77.5833 30.625C84.3208 30.625 89.8333 28.7875 89.8333 26.5417V22.4584C89.8333 24.7042 84.3208 26.5417 77.5833 26.5417Z" fill="#EE5790"/>
<path d="M77.5833 20.4167C70.8458 20.4167 65.3333 18.5792 65.3333 16.3334V20.4167C65.3333 22.6625 70.8458 24.5 77.5833 24.5C84.3208 24.5 89.8333 22.6625 89.8333 20.4167V16.3334C89.8333 18.5792 84.3208 20.4167 77.5833 20.4167Z" fill="#EE5790"/>
<path d="M77.5833 32.6667C70.8458 32.6667 65.3333 30.8292 65.3333 28.5834V32.6667C65.3333 34.9125 70.8458 36.75 77.5833 36.75C84.3208 36.75 89.8333 34.9125 89.8333 32.6667V28.5834C89.8333 30.8292 84.3208 32.6667 77.5833 32.6667Z" fill="#EE5790"/>
<path d="M77.5833 38.7917C70.8458 38.7917 65.3333 36.9542 65.3333 34.7084V38.7917C65.3333 41.0375 70.8458 42.875 77.5833 42.875C84.3208 42.875 89.8333 41.0375 89.8333 38.7917V34.7084C89.8333 36.9542 84.3208 38.7917 77.5833 38.7917Z" fill="#EE5790"/>
<path d="M77.5833 44.9167C70.8458 44.9167 65.3333 43.0792 65.3333 40.8334V44.9167C65.3333 47.1625 70.8458 49 77.5833 49C84.3208 49 89.8333 47.1625 89.8333 44.9167V40.8334C89.8333 43.0792 84.3208 44.9167 77.5833 44.9167Z" fill="#EE5790"/>
<path d="M77.5833 51.0417C70.8458 51.0417 65.3333 49.2042 65.3333 46.9584V51.0417C65.3333 53.2875 70.8458 55.125 77.5833 55.125C84.3208 55.125 89.8333 53.2875 89.8333 51.0417V46.9584C89.8333 49.2042 84.3208 51.0417 77.5833 51.0417Z" fill="#EE5790"/>
<path d="M77.5833 57.1667C70.8458 57.1667 65.3333 55.3292 65.3333 53.0834V57.1667C65.3333 59.4125 70.8458 61.25 77.5833 61.25C84.3208 61.25 89.8333 59.4125 89.8333 57.1667V53.0834C89.8333 55.3292 84.3208 57.1667 77.5833 57.1667Z" fill="#EE5790"/>
<path d="M77.5833 63.2917C70.8458 63.2917 65.3333 61.4542 65.3333 59.2084V63.2917C65.3333 65.5375 70.8458 67.375 77.5833 67.375C84.3208 67.375 89.8333 65.5375 89.8333 63.2917V59.2084C89.8333 61.4542 84.3208 63.2917 77.5833 63.2917Z" fill="#EE5790"/>
<path d="M77.5833 69.4167C70.8458 69.4167 65.3333 67.5792 65.3333 65.3334V69.4167C65.3333 71.6625 70.8458 73.5 77.5833 73.5C84.3208 73.5 89.8333 71.6625 89.8333 69.4167V65.3334C89.8333 67.5792 84.3208 69.4167 77.5833 69.4167Z" fill="#EE5790"/>
<path d="M77.5833 75.5417C70.8458 75.5417 65.3333 73.7042 65.3333 71.4584V75.5417C65.3333 77.7875 70.8458 79.625 77.5833 79.625C84.3208 79.625 89.8333 77.7875 89.8333 75.5417V71.4584C89.8333 73.7042 84.3208 75.5417 77.5833 75.5417Z" fill="#EE5790"/>
<path d="M77.5833 81.6667C70.8458 81.6667 65.3333 79.8292 65.3333 77.5834V81.6667C65.3333 83.9125 70.8458 85.75 77.5833 85.75C84.3208 85.75 89.8333 83.9125 89.8333 81.6667V77.5834C89.8333 79.8292 84.3208 81.6667 77.5833 81.6667Z" fill="#EE5790"/>
<path d="M77.5833 20.4167C84.3487 20.4167 89.8333 18.5885 89.8333 16.3333C89.8333 14.0782 84.3487 12.25 77.5833 12.25C70.8178 12.25 65.3333 14.0782 65.3333 16.3333C65.3333 18.5885 70.8178 20.4167 77.5833 20.4167Z" fill="#FFC5F9"/>
<path d="M77.5833 24.5C71.8666 24.5 67.1708 23.275 65.7416 21.4375C65.5374 21.8458 65.3333 22.05 65.3333 22.4583C65.3333 24.7042 70.8458 26.5417 77.5833 26.5417C84.3208 26.5417 89.8333 24.7042 89.8333 22.4583C89.8333 22.05 89.6291 21.8458 89.4249 21.4375C87.9958 23.275 83.2999 24.5 77.5833 24.5Z" fill="#FFC5F9"/>
<path d="M77.5833 30.625C71.8666 30.625 67.1708 29.4 65.7416 27.5625C65.5374 27.9708 65.3333 28.175 65.3333 28.5833C65.3333 30.8292 70.8458 32.6667 77.5833 32.6667C84.3208 32.6667 89.8333 30.8292 89.8333 28.5833C89.8333 28.175 89.6291 27.9708 89.4249 27.5625C87.9958 29.4 83.2999 30.625 77.5833 30.625Z" fill="#FFC5F9"/>
<path d="M77.5833 36.75C71.8666 36.75 67.1708 35.525 65.7416 33.6875C65.5374 34.0958 65.3333 34.3 65.3333 34.7083C65.3333 36.9542 70.8458 38.7917 77.5833 38.7917C84.3208 38.7917 89.8333 36.9542 89.8333 34.7083C89.8333 34.3 89.6291 34.0958 89.4249 33.6875C87.9958 35.525 83.2999 36.75 77.5833 36.75Z" fill="#FFC5F9"/>
<path d="M77.5833 42.875C71.8666 42.875 67.1708 41.65 65.7416 39.8125C65.5374 40.2208 65.3333 40.425 65.3333 40.8333C65.3333 43.0792 70.8458 44.9167 77.5833 44.9167C84.3208 44.9167 89.8333 43.0792 89.8333 40.8333C89.8333 40.425 89.6291 40.2208 89.4249 39.8125C87.9958 41.65 83.2999 42.875 77.5833 42.875Z" fill="#FFC5F9"/>
<path d="M77.5833 49C71.8666 49 67.1708 47.775 65.7416 45.9375C65.5374 46.3458 65.3333 46.55 65.3333 46.9583C65.3333 49.2042 70.8458 51.0417 77.5833 51.0417C84.3208 51.0417 89.8333 49.2042 89.8333 46.9583C89.8333 46.55 89.6291 46.3458 89.4249 45.9375C87.9958 47.775 83.2999 49 77.5833 49Z" fill="#FFC5F9"/>
<path d="M77.5833 55.125C71.8666 55.125 67.1708 53.9 65.7416 52.0625C65.5374 52.4708 65.3333 52.675 65.3333 53.0833C65.3333 55.3292 70.8458 57.1667 77.5833 57.1667C84.3208 57.1667 89.8333 55.3292 89.8333 53.0833C89.8333 52.675 89.6291 52.4708 89.4249 52.0625C87.9958 53.9 83.2999 55.125 77.5833 55.125Z" fill="#FFC5F9"/>
<path d="M77.5833 61.25C71.8666 61.25 67.1708 60.025 65.7416 58.1875C65.5374 58.5958 65.3333 58.8 65.3333 59.2083C65.3333 61.4542 70.8458 63.2917 77.5833 63.2917C84.3208 63.2917 89.8333 61.4542 89.8333 59.2083C89.8333 58.8 89.6291 58.5958 89.4249 58.1875C87.9958 60.025 83.2999 61.25 77.5833 61.25Z" fill="#FFC5F9"/>
<path d="M77.5833 67.375C71.8666 67.375 67.1708 66.15 65.7416 64.3125C65.5374 64.7208 65.3333 64.925 65.3333 65.3333C65.3333 67.5792 70.8458 69.4167 77.5833 69.4167C84.3208 69.4167 89.8333 67.5792 89.8333 65.3333C89.8333 64.925 89.6291 64.7208 89.4249 64.3125C87.9958 66.15 83.2999 67.375 77.5833 67.375Z" fill="#FFC5F9"/>
<path d="M77.5833 73.5C71.8666 73.5 67.1708 72.275 65.7416 70.4375C65.5374 70.8458 65.3333 71.05 65.3333 71.4583C65.3333 73.7042 70.8458 75.5417 77.5833 75.5417C84.3208 75.5417 89.8333 73.7042 89.8333 71.4583C89.8333 71.05 89.6291 70.8458 89.4249 70.4375C87.9958 72.275 83.2999 73.5 77.5833 73.5Z" fill="#FFC5F9"/>
<path d="M77.5833 79.625C71.8666 79.625 67.1708 78.4 65.7416 76.5625C65.5374 76.9708 65.3333 77.175 65.3333 77.5833C65.3333 79.8292 70.8458 81.6667 77.5833 81.6667C84.3208 81.6667 89.8333 79.8292 89.8333 77.5833C89.8333 77.175 89.6291 76.9708 89.4249 76.5625C87.9958 78.4 83.2999 79.625 77.5833 79.625Z" fill="#FFC5F9"/>
<path d="M20.4167 38.7917C13.6792 38.7917 8.16675 36.9542 8.16675 34.7084V38.7917C8.16675 41.0375 13.6792 42.875 20.4167 42.875C27.1542 42.875 32.6667 41.0375 32.6667 38.7917V34.7084C32.6667 36.9542 27.1542 38.7917 20.4167 38.7917Z" fill="#EE5790"/>
<path d="M20.4167 32.6667C13.6792 32.6667 8.16675 30.8292 8.16675 28.5834V32.6667C8.16675 34.9125 13.6792 36.75 20.4167 36.75C27.1542 36.75 32.6667 34.9125 32.6667 32.6667V28.5834C32.6667 30.8292 27.1542 32.6667 20.4167 32.6667Z" fill="#EE5790"/>
<path d="M20.4167 44.9167C13.6792 44.9167 8.16675 43.0792 8.16675 40.8334V44.9167C8.16675 47.1625 13.6792 49 20.4167 49C27.1542 49 32.6667 47.1625 32.6667 44.9167V40.8334C32.6667 43.0792 27.1542 44.9167 20.4167 44.9167Z" fill="#EE5790"/>
<path d="M20.4167 51.0417C13.6792 51.0417 8.16675 49.2042 8.16675 46.9584V51.0417C8.16675 53.2875 13.6792 55.125 20.4167 55.125C27.1542 55.125 32.6667 53.2875 32.6667 51.0417V46.9584C32.6667 49.2042 27.1542 51.0417 20.4167 51.0417Z" fill="#EE5790"/>
<path d="M20.4167 57.1667C13.6792 57.1667 8.16675 55.3292 8.16675 53.0834V57.1667C8.16675 59.4125 13.6792 61.25 20.4167 61.25C27.1542 61.25 32.6667 59.4125 32.6667 57.1667V53.0834C32.6667 55.3292 27.1542 57.1667 20.4167 57.1667Z" fill="#EE5790"/>
<path d="M20.4167 63.2917C13.6792 63.2917 8.16675 61.4542 8.16675 59.2084V63.2917C8.16675 65.5375 13.6792 67.375 20.4167 67.375C27.1542 67.375 32.6667 65.5375 32.6667 63.2917V59.2084C32.6667 61.4542 27.1542 63.2917 20.4167 63.2917Z" fill="#EE5790"/>
<path d="M20.4167 69.4167C13.6792 69.4167 8.16675 67.5792 8.16675 65.3334V69.4167C8.16675 71.6625 13.6792 73.5 20.4167 73.5C27.1542 73.5 32.6667 71.6625 32.6667 69.4167V65.3334C32.6667 67.5792 27.1542 69.4167 20.4167 69.4167Z" fill="#EE5790"/>
<path d="M20.4167 75.5417C13.6792 75.5417 8.16675 73.7042 8.16675 71.4584V75.5417C8.16675 77.7875 13.6792 79.625 20.4167 79.625C27.1542 79.625 32.6667 77.7875 32.6667 75.5417V71.4584C32.6667 73.7042 27.1542 75.5417 20.4167 75.5417Z" fill="#EE5790"/>
<path d="M20.4167 81.6667C13.6792 81.6667 8.16675 79.8292 8.16675 77.5834V81.6667C8.16675 83.9125 13.6792 85.75 20.4167 85.75C27.1542 85.75 32.6667 83.9125 32.6667 81.6667V77.5834C32.6667 79.8292 27.1542 81.6667 20.4167 81.6667Z" fill="#EE5790"/>
<path d="M20.4167 32.6667C27.1822 32.6667 32.6667 30.8385 32.6667 28.5833C32.6667 26.3282 27.1822 24.5 20.4167 24.5C13.6513 24.5 8.16675 26.3282 8.16675 28.5833C8.16675 30.8385 13.6513 32.6667 20.4167 32.6667Z" fill="#FFC5F9"/>
<path d="M20.4167 36.75C14.7001 36.75 10.0042 35.525 8.57508 33.6875C8.37091 34.0958 8.16675 34.3 8.16675 34.7083C8.16675 36.9542 13.6792 38.7917 20.4167 38.7917C27.1542 38.7917 32.6667 36.9542 32.6667 34.7083C32.6667 34.3 32.4626 34.0958 32.2584 33.6875C30.8292 35.525 26.1334 36.75 20.4167 36.75Z" fill="#FFC5F9"/>
<path d="M20.4167 42.875C14.7001 42.875 10.0042 41.65 8.57508 39.8125C8.37091 40.2208 8.16675 40.425 8.16675 40.8333C8.16675 43.0792 13.6792 44.9167 20.4167 44.9167C27.1542 44.9167 32.6667 43.0792 32.6667 40.8333C32.6667 40.425 32.4626 40.2208 32.2584 39.8125C30.8292 41.65 26.1334 42.875 20.4167 42.875Z" fill="#FFC5F9"/>
<path d="M20.4167 49C14.7001 49 10.0042 47.775 8.57508 45.9375C8.37091 46.3458 8.16675 46.55 8.16675 46.9583C8.16675 49.2042 13.6792 51.0417 20.4167 51.0417C27.1542 51.0417 32.6667 49.2042 32.6667 46.9583C32.6667 46.55 32.4626 46.3458 32.2584 45.9375C30.8292 47.775 26.1334 49 20.4167 49Z" fill="#FFC5F9"/>
<path d="M20.4167 55.125C14.7001 55.125 10.0042 53.9 8.57508 52.0625C8.37091 52.4708 8.16675 52.675 8.16675 53.0833C8.16675 55.3292 13.6792 57.1667 20.4167 57.1667C27.1542 57.1667 32.6667 55.3292 32.6667 53.0833C32.6667 52.675 32.4626 52.4708 32.2584 52.0625C30.8292 53.9 26.1334 55.125 20.4167 55.125Z" fill="#FFC5F9"/>
<path d="M20.4167 61.25C14.7001 61.25 10.0042 60.025 8.57508 58.1875C8.37091 58.5958 8.16675 58.8 8.16675 59.2083C8.16675 61.4542 13.6792 63.2917 20.4167 63.2917C27.1542 63.2917 32.6667 61.4542 32.6667 59.2083C32.6667 58.8 32.4626 58.5958 32.2584 58.1875C30.8292 60.025 26.1334 61.25 20.4167 61.25Z" fill="#FFC5F9"/>
<path d="M20.4167 67.375C14.7001 67.375 10.0042 66.15 8.57508 64.3125C8.37091 64.7208 8.16675 64.925 8.16675 65.3333C8.16675 67.5792 13.6792 69.4167 20.4167 69.4167C27.1542 69.4167 32.6667 67.5792 32.6667 65.3333C32.6667 64.925 32.4626 64.7208 32.2584 64.3125C30.8292 66.15 26.1334 67.375 20.4167 67.375Z" fill="#FFC5F9"/>
<path d="M20.4167 73.5C14.7001 73.5 10.0042 72.275 8.57508 70.4375C8.37091 70.8458 8.16675 71.05 8.16675 71.4583C8.16675 73.7042 13.6792 75.5417 20.4167 75.5417C27.1542 75.5417 32.6667 73.7042 32.6667 71.4583C32.6667 71.05 32.4626 70.8458 32.2584 70.4375C30.8292 72.275 26.1334 73.5 20.4167 73.5Z" fill="#FFC5F9"/>
<path d="M20.4167 79.625C14.7001 79.625 10.0042 78.4 8.57508 76.5625C8.37091 76.9708 8.16675 77.175 8.16675 77.5833C8.16675 79.8292 13.6792 81.6667 20.4167 81.6667C27.1542 81.6667 32.6667 79.8292 32.6667 77.5833C32.6667 77.175 32.4626 76.9708 32.2584 76.5625C30.8292 78.4 26.1334 79.625 20.4167 79.625Z" fill="#FFC5F9"/>
<path d="M49 57.1667C42.2625 57.1667 36.75 55.3292 36.75 53.0834V57.1667C36.75 59.4125 42.2625 61.25 49 61.25C55.7375 61.25 61.25 59.4125 61.25 57.1667V53.0834C61.25 55.3292 55.7375 57.1667 49 57.1667Z" fill="#EE5790"/>
<path d="M49 51.0417C42.2625 51.0417 36.75 49.2042 36.75 46.9584V51.0417C36.75 53.2875 42.2625 55.125 49 55.125C55.7375 55.125 61.25 53.2875 61.25 51.0417V46.9584C61.25 49.2042 55.7375 51.0417 49 51.0417Z" fill="#EE5790"/>
<path d="M49 63.2917C42.2625 63.2917 36.75 61.4542 36.75 59.2084V63.2917C36.75 65.5375 42.2625 67.375 49 67.375C55.7375 67.375 61.25 65.5375 61.25 63.2917V59.2084C61.25 61.4542 55.7375 63.2917 49 63.2917Z" fill="#EE5790"/>
<path d="M49 69.4167C42.2625 69.4167 36.75 67.5792 36.75 65.3334V69.4167C36.75 71.6625 42.2625 73.5 49 73.5C55.7375 73.5 61.25 71.6625 61.25 69.4167V65.3334C61.25 67.5792 55.7375 69.4167 49 69.4167Z" fill="#EE5790"/>
<path d="M49 75.5417C42.2625 75.5417 36.75 73.7042 36.75 71.4584V75.5417C36.75 77.7875 42.2625 79.625 49 79.625C55.7375 79.625 61.25 77.7875 61.25 75.5417V71.4584C61.25 73.7042 55.7375 75.5417 49 75.5417Z" fill="#EE5790"/>
<path d="M49 81.6667C42.2625 81.6667 36.75 79.8292 36.75 77.5834V81.6667C36.75 83.9125 42.2625 85.75 49 85.75C55.7375 85.75 61.25 83.9125 61.25 81.6667V77.5834C61.25 79.8292 55.7375 81.6667 49 81.6667Z" fill="#EE5790"/>
<path d="M49 51.0417C55.7655 51.0417 61.25 49.2135 61.25 46.9583C61.25 44.7032 55.7655 42.875 49 42.875C42.2345 42.875 36.75 44.7032 36.75 46.9583C36.75 49.2135 42.2345 51.0417 49 51.0417Z" fill="#FFC5F9"/>
<path d="M49 55.125C43.2833 55.125 38.5875 53.9 37.1583 52.0625C36.9542 52.4708 36.75 52.675 36.75 53.0833C36.75 55.3292 42.2625 57.1667 49 57.1667C55.7375 57.1667 61.25 55.3292 61.25 53.0833C61.25 52.675 61.0458 52.4708 60.8417 52.0625C59.4125 53.9 54.7167 55.125 49 55.125Z" fill="#FFC5F9"/>
<path d="M49 61.25C43.2833 61.25 38.5875 60.025 37.1583 58.1875C36.9542 58.5958 36.75 58.8 36.75 59.2083C36.75 61.4542 42.2625 63.2917 49 63.2917C55.7375 63.2917 61.25 61.4542 61.25 59.2083C61.25 58.8 61.0458 58.5958 60.8417 58.1875C59.4125 60.025 54.7167 61.25 49 61.25Z" fill="#FFC5F9"/>
<path d="M49 67.375C43.2833 67.375 38.5875 66.15 37.1583 64.3125C36.9542 64.7208 36.75 64.925 36.75 65.3333C36.75 67.5792 42.2625 69.4167 49 69.4167C55.7375 69.4167 61.25 67.5792 61.25 65.3333C61.25 64.925 61.0458 64.7208 60.8417 64.3125C59.4125 66.15 54.7167 67.375 49 67.375Z" fill="#FFC5F9"/>
<path d="M49 73.5C43.2833 73.5 38.5875 72.275 37.1583 70.4375C36.9542 70.8458 36.75 71.05 36.75 71.4583C36.75 73.7042 42.2625 75.5417 49 75.5417C55.7375 75.5417 61.25 73.7042 61.25 71.4583C61.25 71.05 61.0458 70.8458 60.8417 70.4375C59.4125 72.275 54.7167 73.5 49 73.5Z" fill="#FFC5F9"/>
<path d="M49 79.625C43.2833 79.625 38.5875 78.4 37.1583 76.5625C36.9542 76.9708 36.75 77.175 36.75 77.5833C36.75 79.8292 42.2625 81.6667 49 81.6667C55.7375 81.6667 61.25 79.8292 61.25 77.5833C61.25 77.175 61.0458 76.9708 60.8417 76.5625C59.4125 78.4 54.7167 79.625 49 79.625Z" fill="#FFC5F9"/>
</svg>
