<svg width="103" height="103" viewBox="0 0 103 103" fill="none" xmlns="http://www.w3.org/2000/svg">
<path d="M81.5417 25.75H47.2084L38.625 17.1666H17.1667C12.4459 17.1666 8.58337 21.0291 8.58337 25.75V77.25C8.58337 81.9708 12.4459 85.8333 17.1667 85.8333H83.6875C87.3355 85.8333 90.125 83.0437 90.125 79.3958V34.3333C90.125 29.6125 86.2625 25.75 81.5417 25.75Z" fill="#EE5790"/>
<path d="M83.5125 38.625H25.7896C21.7125 38.625 18.0646 41.6292 17.4208 45.7062L10.125 85.8333H78.1479C82.225 85.8333 85.8729 82.8292 86.5167 78.7521L91.8812 48.7104C92.9542 43.5604 88.8771 38.625 83.5125 38.625Z" fill="#FFC5F9"/>
</svg>
