<svg width="105" height="105" viewBox="0 0 105 105" fill="none" xmlns="http://www.w3.org/2000/svg">
<path d="M38.9375 39.5939L22.75 55.5626L13.5625 46.5939L8.75 51.4064L22.75 65.4064L43.75 44.4064L38.9375 39.5939Z" fill="#EE5790"/>
<path d="M38.9375 11.1564L22.75 27.1251L13.5625 18.1564L8.75 22.9689L22.75 36.9689L43.75 15.9689L38.9375 11.1564Z" fill="#EE5790"/>
<path d="M38.9375 68.0314L22.75 84.0001L13.5625 75.0314L8.75 79.8439L22.75 93.8439L43.75 72.8439L38.9375 68.0314Z" fill="#EE5790"/>
<path d="M52.5 48.125H96.25V56.875H52.5V48.125Z" fill="#FFC5F9"/>
<path d="M52.5 19.6875H96.25V28.4375H52.5V19.6875Z" fill="#FFC5F9"/>
<path d="M52.5 76.5625H96.25V85.3125H52.5V76.5625Z" fill="#FFC5F9"/>
</svg>
