<svg width="107" height="107" viewBox="0 0 107 107" fill="none" xmlns="http://www.w3.org/2000/svg">
<path d="M26.75 57.9583C32.9057 57.9583 37.8958 52.9681 37.8958 46.8125C37.8958 40.6568 32.9057 35.6666 26.75 35.6666C20.5943 35.6666 15.6042 40.6568 15.6042 46.8125C15.6042 52.9681 20.5943 57.9583 26.75 57.9583Z" fill="#FFA726"/>
<path d="M4.45831 77.3521C4.45831 77.3521 10.7 63.3083 26.75 63.3083C42.8 63.3083 49.0416 77.3521 49.0416 77.3521V84.7084H4.45831V77.3521Z" fill="#ED80A7"/>
<path d="M102.542 77.3521C102.542 77.3521 96.3 63.3083 80.25 63.3083C64.2 63.3083 57.9583 77.3521 57.9583 77.3521V84.7084H102.542V77.3521Z" fill="#ED80A7"/>
<path d="M53.5 51.2709C60.8868 51.2709 66.875 45.2827 66.875 37.8959C66.875 30.5091 60.8868 24.5209 53.5 24.5209C46.1132 24.5209 40.125 30.5091 40.125 37.8959C40.125 45.2827 46.1132 51.2709 53.5 51.2709Z" fill="#EA0D63"/>
<path d="M80.25 76.0145C80.25 76.0145 72.8938 59.2958 53.5 59.2958C34.1063 59.2958 26.75 76.0145 26.75 76.0145V84.7083H80.25V76.0145Z" fill="#FFC5F9"/>
<path d="M80.25 57.9583C86.4057 57.9583 91.3959 52.9681 91.3959 46.8125C91.3959 40.6568 86.4057 35.6666 80.25 35.6666C74.0943 35.6666 69.1042 40.6568 69.1042 46.8125C69.1042 52.9681 74.0943 57.9583 80.25 57.9583Z" fill="#FFA726"/>
<path d="M26.75 57.9583C32.9057 57.9583 37.8958 52.9681 37.8958 46.8125C37.8958 40.6568 32.9057 35.6666 26.75 35.6666C20.5943 35.6666 15.6042 40.6568 15.6042 46.8125C15.6042 52.9681 20.5943 57.9583 26.75 57.9583Z" fill="#EA0D63"/>
<path d="M80.25 57.9583C86.4057 57.9583 91.3959 52.9681 91.3959 46.8125C91.3959 40.6568 86.4057 35.6666 80.25 35.6666C74.0943 35.6666 69.1042 40.6568 69.1042 46.8125C69.1042 52.9681 74.0943 57.9583 80.25 57.9583Z" fill="#EA0D63"/>
</svg>
