<svg width="96" height="96" viewBox="0 0 96 96" fill="none" xmlns="http://www.w3.org/2000/svg">
<path d="M80 42H88V88H80V42Z" fill="#FFC5F9"/>
<path d="M68 56H76V88H68V56Z" fill="#FFC5F9"/>
<path d="M56 46H64V88H56V46Z" fill="#FFC5F9"/>
<path d="M44 58H52V88H44V58Z" fill="#FFC5F9"/>
<path d="M32 64H40V88H32V64Z" fill="#FFC5F9"/>
<path d="M20 60H28V88H20V60Z" fill="#FFC5F9"/>
<path d="M8 68H16V88H8V68Z" fill="#FFC5F9"/>
<path d="M80.2002 18.2L68.0002 30.3999L60.0002 22.3999L40.0002 42.3999L30.0002 32.4L9.2002 53.1999L14.8002 58.7999L30.0002 43.5999L40.0002 53.5999L60.0002 33.5999L68.0002 41.5999L85.8002 23.7999L80.2002 18.2Z" fill="#EE5790"/>
<path d="M88 16H70L88 34V16Z" fill="#EE5790"/>
</svg>
